<?xml version="1.0" encoding="utf-8"?>
<!-- Generator: Adobe Illustrator 16.0.3, SVG Export Plug-In . SVG Version: 6.00 Build 0)  -->
<!DOCTYPE svg PUBLIC "-//W3C//DTD SVG 1.1//EN" "http://www.w3.org/Graphics/SVG/1.1/DTD/svg11.dtd">
<svg version="1.1" id="Capa_1" xmlns="http://www.w3.org/2000/svg" xmlns:xlink="http://www.w3.org/1999/xlink" x="0px" y="0px"
	 width="803.962px" height="897.438px" viewBox="158.611 113.75 803.962 897.438"
	 enable-background="new 158.611 113.75 803.962 897.438" xml:space="preserve">
<g id="Capa_4" display="none">
	<g display="inline">
		<g>
			<g>
				<polygon fill="#FFFFFF" points="575.995,373.001 489.394,423.002 402.791,373.001 489.395,323.001 				"/>
			</g>
			<g>
				<polygon fill="#C8E3F2" points="575.995,373.001 489.394,423.002 402.791,373.001 489.395,323.001 				"/>
			</g>
		</g>
		<g>
			<g>
				<polygon fill="#FFFFFF" points="575.995,373.001 575.995,473 489.394,523 489.395,423 				"/>
			</g>
			<g>
				<polygon fill="#C8E3F2" points="575.995,373.001 575.995,473 489.394,523 489.395,423 				"/>
			</g>
		</g>
		<g>
			<g>
				<polygon fill="#FFFFFF" points="402.791,373 402.791,473 489.394,523 489.394,423 				"/>
			</g>
			<g>
				<polygon fill="#C8E3F2" points="402.791,373 402.791,473 489.394,523 489.394,423 				"/>
			</g>
		</g>
		<g>
			<g>
				<polygon fill="#FFFFFF" points="575.995,473.002 575.995,573 489.395,623 489.395,523 				"/>
			</g>
			<g>
				<polygon fill="#C8E3F2" points="575.995,473.002 575.995,573 489.395,623 489.395,523 				"/>
			</g>
		</g>
		<g>
			<g>
				<polygon fill="#FFFFFF" points="402.791,473.002 402.791,573 489.395,623 489.394,523 				"/>
			</g>
			<g>
				<polygon fill="#C8E3F2" points="402.791,473.002 402.791,573 489.395,623 489.394,523 				"/>
			</g>
		</g>
	</g>
</g>
<g id="Capa_6" display="none">
	<polygon display="inline" fill="none" stroke="#000000" stroke-width="7" stroke-miterlimit="10" points="344.274,940.49 
		127.546,565.107 344.274,189.726 777.727,189.726 994.452,565.107 777.727,940.49 	"/>
</g>
<g id="Capa_7" display="none">
	<g display="inline">
		<polygon fill="none" stroke="#000000" stroke-width="7" stroke-miterlimit="10" points="185.618,348.38 561,131.654 
			936.383,348.38 936.383,781.837 561,998.563 185.618,781.837 		"/>
	</g>
	<path display="inline" fill="none" stroke="#000000" stroke-width="7" stroke-miterlimit="10" d="M319.339,426.467"/>
</g>
<g id="Capa_8" display="none">
	<polygon display="inline" fill="none" stroke="#000000" stroke-width="7" stroke-miterlimit="10" points="560.976,998.563 
		185.575,348.381 936.373,348.381 	"/>
</g>
<g id="Capa_9" display="none">
	<polygon display="inline" fill="none" stroke="#000000" stroke-width="7" stroke-miterlimit="10" points="560.976,131.654 
		936.373,781.837 185.575,781.837 	"/>
</g>
<g id="flechas" display="none">
	
		<rect x="102" y="432" display="inline" fill="#843636" stroke="#FFFFFF" stroke-width="7" stroke-miterlimit="10" width="1140" height="618"/>
	<polygon display="inline" points="560.765,131.845 936.186,348.452 686.107,348.452 	"/>
	<polygon display="inline" points="560.765,998.504 185.345,782.025 435.423,782.025 	"/>
	<polygon display="inline" points="185.345,782.025 185.345,348.452 310.284,565.371 	"/>
	<polygon display="inline" points="936.186,348.452 936.186,782.025 811.244,565.371 	"/>
	<polygon display="inline" points="185.345,348.452 560.765,131.845 434.664,348.452 	"/>
	<polygon display="inline" points="936.186,782.025 560.765,998.504 686.864,782.025 	"/>
</g>
<g id="Capa_10">
	<polygon fill="#333333" stroke="#000000" stroke-width="20" stroke-miterlimit="10" points="560.976,565.371 185.575,781.837 
		185.575,348.381 560.976,131.654 	"/>
	<polygon fill="#808080" stroke="#000000" stroke-width="20" stroke-miterlimit="10" points="936.373,348.381 936.373,781.837 
		560.976,565.371 560.976,131.654 	"/>
	<polygon fill="#CCCCCC" stroke="#000000" stroke-width="20" stroke-miterlimit="10" points="560.976,565.371 936.373,781.837 
		560.976,998.563 185.575,781.837 	"/>
</g>
<g id="Capa_11" display="none">
	<polygon display="inline" fill="none" stroke="#000000" stroke-width="7" stroke-miterlimit="10" points="560.976,565.371 
		936.373,348.381 936.373,781.837 560.976,998.563 	"/>
	<polygon display="inline" fill="none" stroke="#000000" stroke-width="7" stroke-miterlimit="10" points="185.575,781.837 
		185.575,348.381 560.976,565.371 560.976,998.563 	"/>
	<polygon display="inline" fill="none" stroke="#000000" stroke-width="7" stroke-miterlimit="10" points="560.976,565.371 
		185.575,348.381 560.976,131.654 936.373,348.381 	"/>
</g>
<g id="rellenos">
	<g>
		<g>
			<g>
				<polygon fill="#FFFFFF" points="690.861,289.86 690.863,590.357 604.26,640.357 604.26,339.86 				"/>
			</g>
			<g>
				<polygon fill="#C8E3F2" points="690.861,289.86 690.863,590.357 604.26,640.357 604.26,339.86 				"/>
			</g>
		</g>
		<g>
			<g>
				<polygon fill="#FFFFFF" points="690.945,590.357 690.945,890.355 604.344,940.355 604.344,640.356 				"/>
			</g>
			<g>
				<polygon fill="#C8E3F2" points="690.945,590.357 690.945,890.355 604.344,940.355 604.344,640.356 				"/>
			</g>
		</g>
		<g>
			<g>
				<polygon fill="#FFFFFF" points="690.863,289.86 604.26,339.86 431.055,239.86 517.657,189.86 				"/>
			</g>
			<g>
				<polygon fill="#C8E3F2" points="690.863,289.86 604.26,339.86 431.055,239.86 517.657,189.86 				"/>
			</g>
		</g>
		<g>
			<g>
				<polygon fill="#FFFFFF" points="431.055,239.86 431.056,540.356 604.26,640.357 604.26,339.859 				"/>
			</g>
			<g>
				<polygon fill="#C8E3F2" points="431.055,239.86 431.056,540.356 604.26,640.357 604.26,339.859 				"/>
			</g>
		</g>
		<g>
			<g>
				<polygon fill="#FFFFFF" points="431.138,540.357 431.139,840.355 604.344,940.355 604.342,640.356 				"/>
			</g>
			<g>
				<polygon fill="#C8E3F2" points="431.138,540.357 431.139,840.355 604.344,940.355 604.342,640.356 				"/>
			</g>
		</g>
	</g>
</g>
<g id="Capa_5" display="none">
	<g display="inline">
		<rect x="560.976" y="189.86" width="0" height="750.496"/>
		<rect x="561" y="190.123" width="0" height="750.496"/>
	</g>
</g>
<g id="silueta">
	<g display="none" opacity="0.37">
		<g display="inline">
			<g>
				<g>
					<path fill="#7F7F7F" d="M616.301,940.355c0-25.21,0-50.42,0-75.629c0-58.115,0-116.23,0-174.345c0-64.748,0-129.497,0-194.245
						c0-45.11,0-90.222,0-135.331c0-6.982,0-13.965,0-20.946c-1.981,3.454-3.962,6.908-5.943,10.362
						c28.84-16.667,57.679-33.333,86.52-50c-6.02-3.454-12.038-6.908-18.058-10.362c0.004,25.209,0.007,50.419,0.011,75.629
						c0.009,58.114,0.017,116.229,0.023,174.344c0.01,64.75,0.019,129.497,0.027,194.245c0.006,45.111,0.013,90.222,0.019,135.332
						c0.001,6.981,0.002,13.964,0.003,20.945c1.981-3.454,3.962-6.908,5.943-10.361c-28.867,16.666-57.734,33.333-86.603,50
						c-13.395,7.733-1.313,28.477,12.113,20.724c28.867-16.666,57.734-33.333,86.602-50c3.655-2.11,5.944-6.15,5.943-10.361
						c-0.004-25.21-0.007-50.42-0.011-75.629c-0.008-58.115-0.017-116.23-0.023-174.345c-0.009-64.748-0.019-129.497-0.026-194.245
						c-0.007-45.11-0.014-90.222-0.02-135.331c-0.001-6.982-0.002-13.964-0.003-20.946c-0.001-9.129-10.185-14.912-18.057-10.362
						c-21.362,12.347-42.727,24.691-64.088,37.037c-7.478,4.321-14.954,8.643-22.432,12.963c-6.066,3.508-5.942,9.162-5.942,14.897
						c0,35.104,0,70.209,0,105.313c0,61.967,0,123.934,0,185.9c0,62.559,0,125.115,0,187.674c0,36.878,0,73.756,0,110.634
						c0,2.146,0,4.293,0,6.438C592.301,955.832,616.301,955.832,616.301,940.355z"/>
				</g>
			</g>
		</g>
		<g display="inline">
			<g>
				<g>
					<path fill="#7F7F7F" d="M437.153,250.222c28.868-16.667,57.735-33.333,86.604-50c-4.038,0-8.076,0-12.113,0
						c42.767,24.69,85.533,49.383,128.299,74.073c14.969,8.643,29.938,17.284,44.905,25.927c0-6.908,0-13.815,0-20.725
						c-28.867,16.667-57.735,33.333-86.604,50c4.038,0,8.075,0,12.113,0c-42.767-24.69-85.533-49.383-128.299-74.074
						c-14.968-8.642-29.938-17.283-44.905-25.926c-13.428-7.753-25.508,12.99-12.113,20.725
						c42.768,24.69,85.533,49.383,128.299,74.073c14.969,8.643,29.937,17.284,44.905,25.927c3.738,2.157,8.375,2.157,12.113,0
						c28.867-16.667,57.735-33.333,86.603-50c7.785-4.495,7.785-16.229,0-20.725c-42.767-24.69-85.532-49.383-128.3-74.074
						c-14.968-8.642-29.936-17.283-44.903-25.926c-3.738-2.158-8.375-2.158-12.113,0c-28.868,16.667-57.735,33.333-86.604,50
						C411.645,237.232,423.725,257.975,437.153,250.222z"/>
				</g>
			</g>
		</g>
		<g display="inline">
			<g>
				<g>
					<path fill="#7F7F7F" d="M616.384,940.355c0-25.209,0-50.42,0-75.629c0-58.115,0-116.229,0-174.344
						c0-64.748,0-129.497,0-194.245c0-45.11,0-90.222,0-135.331c0-6.982,0-13.965,0-20.946c0-4.21-2.287-8.251-5.943-10.362
						c-42.616-24.593-85.231-49.187-127.848-73.778c-15.146-8.741-30.292-17.481-45.439-26.224
						c-7.872-4.543-18.058,1.229-18.057,10.362c0.003,25.209,0.007,50.419,0.011,75.629c0.008,58.114,0.016,116.229,0.024,174.344
						c0.009,64.749,0.018,129.497,0.026,194.245c0.006,45.111,0.014,90.222,0.02,135.332c0.001,6.98,0.002,13.962,0.003,20.943
						c0.001,8.914,9.938,12.67,16.465,16.438c10.195,5.887,20.389,11.772,30.583,17.657c43.985,25.396,87.97,50.791,131.955,76.187
						c0.048,0.026,0.095,0.055,0.143,0.082c13.429,7.753,25.51-12.989,12.113-20.724c-42.767-24.69-85.532-49.383-128.299-74.074
						c-14.968-8.643-29.937-17.283-44.904-25.926c1.981,3.453,3.962,6.907,5.943,10.361c-0.003-25.21-0.007-50.42-0.012-75.629
						c-0.008-58.115-0.016-116.23-0.023-174.345c-0.009-64.748-0.018-129.497-0.027-194.246
						c-0.006-45.109-0.013-90.221-0.019-135.331c-0.001-6.981-0.002-13.964-0.003-20.945c-6.02,3.454-12.038,6.908-18.058,10.361
						c42.616,24.594,85.232,49.188,127.849,73.779c15.146,8.741,30.292,17.481,45.438,26.224c-1.98-3.454-3.962-6.908-5.942-10.362
						c0,25.209,0,50.419,0,75.629c0,58.115,0,116.229,0,174.344c0,64.748,0,129.496,0,194.244c0,45.11,0,90.222,0,135.331
						c0,6.981,0,13.963,0,20.945C592.384,955.832,616.384,955.832,616.384,940.355z"/>
				</g>
			</g>
		</g>
	</g>
	<g>
		<g>
			<g>
				<g>
					<path d="M608.801,940.355c0-25.21,0-50.42,0-75.629c0-58.115,0-116.23,0-174.345c0-64.748,0-129.497,0-194.245
						c0-45.11,0-90.222,0-135.331c0-6.982,0-13.965,0-20.946c-0.743,1.295-1.486,2.59-2.229,3.885
						c28.839-16.666,57.68-33.333,86.52-50c-2.257-1.295-4.516-2.59-6.771-3.885c0.004,25.209,0.007,50.419,0.011,75.629
						c0.009,58.114,0.017,116.229,0.023,174.344c0.01,64.75,0.019,129.497,0.027,194.245c0.006,45.111,0.013,90.222,0.019,135.332
						c0.001,6.981,0.002,13.964,0.003,20.945c0.743-1.295,1.486-2.59,2.229-3.886c-28.867,16.667-57.734,33.333-86.603,50
						c-5.022,2.899-0.493,10.679,4.543,7.771c28.867-16.667,57.734-33.333,86.603-50c1.37-0.792,2.229-2.307,2.229-3.886
						c-0.004-25.21-0.007-50.42-0.011-75.629c-0.008-58.115-0.016-116.23-0.023-174.345c-0.009-64.748-0.019-129.497-0.026-194.245
						c-0.006-45.11-0.014-90.222-0.02-135.331c-0.001-6.982-0.002-13.964-0.003-20.946c-0.001-3.423-3.818-5.592-6.771-3.885
						c-21.362,12.345-42.726,24.69-64.088,37.037c-7.478,4.32-14.953,8.642-22.432,12.963c-2.867,1.657-2.229,5.618-2.229,8.421
						c0,35.104,0,70.209,0,105.313c0,61.967,0,123.934,0,185.9c0,62.559,0,125.115,0,187.674c0,36.877,0,73.756,0,110.634
						c0,2.146,0,4.293,0,6.438C599.801,946.159,608.801,946.159,608.801,940.355z"/>
				</g>
			</g>
		</g>
		<g>
			<g>
				<g>
					<path d="M433.367,243.745c28.867-16.666,57.735-33.333,86.604-50c-1.516,0-3.028,0-4.543,0
						c42.767,24.691,85.533,49.383,128.3,74.074c14.968,8.642,29.937,17.284,44.904,25.926c0-2.59,0-5.181,0-7.771
						c-28.867,16.666-57.734,33.333-86.604,50c1.515,0,3.028,0,4.543,0c-42.767-24.691-85.533-49.384-128.3-74.074
						c-14.968-8.643-29.938-17.284-44.904-25.926c-5.036-2.908-9.565,4.871-4.543,7.771c42.768,24.691,85.533,49.383,128.301,74.074
						c14.968,8.642,29.937,17.284,44.903,25.926c1.402,0.811,3.142,0.811,4.543,0c28.867-16.666,57.734-33.333,86.604-50
						c2.919-1.685,2.919-6.085,0-7.771c-42.768-24.691-85.533-49.384-128.3-74.074c-14.969-8.643-29.938-17.284-44.904-25.926
						c-1.402-0.811-3.141-0.811-4.543,0c-28.867,16.666-57.735,33.333-86.604,50C423.802,238.874,428.332,246.653,433.367,243.745z"
						/>
				</g>
			</g>
		</g>
		<g>
			<g>
				<g>
					<path d="M608.884,940.355c0-25.209,0-50.42,0-75.629c0-58.115,0-116.229,0-174.344c0-64.748,0-129.497,0-194.245
						c0-45.11,0-90.222,0-135.331c0-6.982,0-13.965,0-20.946c0-1.579-0.857-3.094-2.229-3.885
						c-42.616-24.595-85.231-49.188-127.849-73.78c-15.146-8.74-30.292-17.481-45.438-26.222c-2.951-1.704-6.771,0.46-6.771,3.885
						c0.003,25.209,0.007,50.419,0.011,75.629c0.008,58.114,0.016,116.229,0.024,174.344c0.009,64.749,0.018,129.497,0.026,194.245
						c0.006,45.111,0.014,90.222,0.02,135.332c0.001,6.98,0.002,13.962,0.003,20.943c0,4.609,9.591,8.139,12.751,9.963
						c10.193,5.885,20.389,11.771,30.583,17.657c43.985,25.396,87.97,50.79,131.955,76.185c0.048,0.027,0.095,0.055,0.143,0.083
						c5.036,2.907,9.565-4.871,4.543-7.771c-42.767-24.691-85.533-49.383-128.299-74.073c-14.968-8.644-29.937-17.285-44.904-25.927
						c0.743,1.296,1.485,2.591,2.229,3.886c-0.003-25.21-0.007-50.42-0.011-75.629c-0.009-58.115-0.017-116.23-0.024-174.345
						c-0.009-64.748-0.018-129.497-0.027-194.245c-0.006-45.11-0.013-90.222-0.019-135.331c-0.001-6.982-0.002-13.965-0.003-20.946
						c-2.257,1.295-4.514,2.59-6.771,3.885c42.616,24.594,85.232,49.188,127.85,73.78c15.146,8.74,30.293,17.48,45.438,26.222
						c-0.743-1.295-1.484-2.59-2.229-3.885c0,25.209,0,50.419,0,75.629c0,58.115,0,116.229,0,174.345c0,64.747,0,129.495,0,194.243
						c0,45.11,0,90.222,0,135.331c0,6.981,0,13.963,0,20.945C599.884,946.159,608.884,946.159,608.884,940.355z"/>
				</g>
			</g>
		</g>
	</g>
</g>
<g id="Capa_2" display="none">
	<g display="inline">
		<line fill="none" stroke="#000000" stroke-miterlimit="10" x1="498.093" y1="499.901" x2="584.695" y2="449.901"/>
		<line fill="none" stroke="#000000" stroke-miterlimit="10" x1="411.49" y1="449.901" x2="498.094" y2="399.901"/>
		<line fill="none" stroke="#000000" stroke-miterlimit="10" x1="498.093" y1="499.901" x2="411.49" y2="449.901"/>
		<line fill="none" stroke="#000000" stroke-miterlimit="10" x1="584.695" y1="449.901" x2="498.094" y2="399.901"/>
	</g>
</g>
</svg>
